<svg id="Layer_1" height="512" viewBox="0 0 512 512" width="512" xmlns="http://www.w3.org/2000/svg" xmlns:xlink="http://www.w3.org/1999/xlink" data-name="Layer 1"><linearGradient id="linear-gradient" gradientUnits="userSpaceOnUse" x1="308.805" x2="308.805" y1="30" y2="478"><stop offset="0" stop-color="#00efd1"/><stop offset="1" stop-color="#00acea"/></linearGradient><linearGradient id="linear-gradient-2" x1="82.156" x2="82.156" xlink:href="#linear-gradient" y1="30" y2="478"/><linearGradient id="linear-gradient-3" x1="248.776" x2="248.776" xlink:href="#linear-gradient" y1="30" y2="478"/><linearGradient id="linear-gradient-4" x1="78.83" x2="78.83" xlink:href="#linear-gradient" y1="30" y2="478"/><linearGradient id="linear-gradient-5" x1="166.049" x2="166.049" xlink:href="#linear-gradient" y1="30" y2="478"/><linearGradient id="linear-gradient-6" x1="46.1" x2="46.1" xlink:href="#linear-gradient" y1="30" y2="478"/><path d="m475.3 36.76a50.221 50.221 0 0 0 -35.786-14.76h-.014a50.2 50.2 0 0 0 -35.8 14.786l-261.588 261.928a5.962 5.962 0 0 0 -1.669 3.216l-12.877 75.59a6 6 0 0 0 6.923 6.915l75.6-12.877a6.009 6.009 0 0 0 3.232-1.67l261.957-261.588a50.537 50.537 0 0 0 .022-71.54zm-276.708 309.91 209.682-209.237 10.417 10.417-209.61 209.31zm-43.752-43.752 209.31-209.609 10.417 10.417-209.238 209.682zm228.213-190.706 16.736 16.735-209.682 209.238-16.292-16.292zm-10.423-27.394 22.805-22.838 54.585 54.585-22.838 22.805zm-222.307 230.554 46.3 46.305-55.81 9.506zm316.477-215.561-8.288 8.275-54.6-54.6 8.276-8.222a38.279 38.279 0 0 1 27.312-11.264h.014a38.524 38.524 0 0 1 27.286 65.811z" fill="url(#linear-gradient)"/><path d="m90.529 412.986-25.229 25.231a6 6 0 0 0 8.485 8.485l25.231-25.23a6 6 0 1 0 -8.485-8.486z" fill="url(#linear-gradient-2)"/><path d="m239.889 415.8a6 6 0 0 0 -8.485 8.486l26.258 26.258a6 6 0 0 0 8.485-8.485z" fill="url(#linear-gradient-3)"/><path d="m87.716 280.6a6 6 0 1 0 8.486-8.486l-26.259-26.261a6 6 0 0 0 -8.485 8.485z" fill="url(#linear-gradient-4)"/><path d="m165.428 441.673a6 6 0 0 0 -5.844 6.152l.934 36.458a6 6 0 0 0 6 5.846h.157a6 6 0 0 0 5.844-6.152l-.934-36.458a6.005 6.005 0 0 0 -6.157-5.846z" fill="url(#linear-gradient-5)"/><path d="m64.332 352.418a6 6 0 0 0 .151-12l-36.458-.934a6 6 0 1 0 -.307 12l36.458.934z" fill="url(#linear-gradient-6)"/></svg>