<?xml version="1.0"?>
<svg xmlns="http://www.w3.org/2000/svg" xmlns:xlink="http://www.w3.org/1999/xlink" id="Layer_1" data-name="Layer 1" viewBox="0 0 512 512" width="512" height="512"><defs><linearGradient id="linear-gradient" x1="256" y1="24.712" x2="256" y2="481.004" gradientUnits="userSpaceOnUse"><stop offset="0" stop-color="#00efd1"/><stop offset="1" stop-color="#00acea"/></linearGradient></defs><title>Flash</title><path d="M352.413,160H286.685l35.9-115.6A8.026,8.026,0,0,0,314.943,34H176.461a8.122,8.122,0,0,0-7.981,7.579L151.607,282.6a7.824,7.824,0,0,0,2.129,5.937A7.929,7.929,0,0,0,159.587,291h54.481l-7.816,178.262a8.006,8.006,0,0,0,15.264,3.784L359.684,171.815a8.474,8.474,0,0,0-.538-7.9A8.236,8.236,0,0,0,352.413,160ZM224.03,428.957l6.389-145.5A8.085,8.085,0,0,0,222.427,275h-54.26L183.92,50H304.089l-35.9,115.981a7.644,7.644,0,0,0,1.2,6.94A7.842,7.842,0,0,0,275.83,176h64.112Z" style="fill:url(#linear-gradient)"/></svg>
