<svg height="496pt" viewBox="0 -67 496.27517 496" width="496pt" xmlns="http://www.w3.org/2000/svg" xmlns:xlink="http://www.w3.org/1999/xlink"><linearGradient id="a" gradientUnits="userSpaceOnUse" x1="248.137282" x2="248.137282" y1="-28.942009" y2="388.627991"><stop offset="0" stop-color="#00efd1"/><stop offset="1" stop-color="#00acea"/></linearGradient><path d="m415.679688 22.027344c-20.082032-20.082032-50.207032-26.992188-78.621094-18.03125l-88.921875 28.039062-88.917969-28.039062c-28.417969-8.960938-58.542969-2.050782-78.625 18.03125l-58.757812 58.753906c-30.421876 30.425781-28.867188 81.542969 3.476562 113.945312 35.503906 35.574219 73.796875 73.929688 105.722656 105.847657-3.003906 11.320312.191406 23.386719 8.410156 31.734375l.429688.429687c6.164062 6.125 14.519531 9.539063 23.210938 9.484375 2.898437-.003906 5.78125-.367187 8.589843-1.078125l3.398438 3.382813c5.03125 5.035156 11.429687 8.488281 18.398437 9.9375 5.996094 5.269531 13.71875 8.152344 21.703125 8.089844.402344 0 .808594-.007813 1.21875-.023438 9.195313-.351562 17.914063-4.191406 24.382813-10.742188l7.359375-7.367187 7.367187 7.367187c6.46875 6.550782 15.1875 10.390626 24.386719 10.742188.40625.015625.8125.023438 1.214844.023438 7.964843.054687 15.671875-2.8125 21.660156-8.0625 6.980469-1.46875 13.382813-4.929688 18.4375-9.964844l3.417969-3.402344c11.332031 3.007812 23.410156-.179688 31.78125-8.386719l.421875-.421875c8.191406-8.359375 11.382812-20.410156 8.402343-31.726562 31.628907-31.621094 69.441407-69.496094 105.738282-105.863282 32.339844-32.398437 33.898437-83.515624 3.46875-113.945312zm-264.488282 299.402344-.429687-.429688c-.941407-.945312-1.765625-2.003906-2.445313-3.15625l6.042969 6.035156c-1.15625-.679687-2.21875-1.503906-3.167969-2.453125zm78.265625 19.046874c-1.007812 1-2.105469 1.898438-3.289062 2.683594 3.363281-4.023437 5.683593-8.808594 6.769531-13.9375l3.886719 3.886719zm116.050781-19.472656-.421874.421875c-6.855469 6.855469-18.589844 6.277344-26.15625-1.289062l-122.863282-122.863281c-2.011718-2.058594-4.976562-2.875-7.757812-2.140626-2.785156.734376-4.960938 2.910157-5.695313 5.695313-.734375 2.78125.082031 5.746094 2.140625 7.761719l106.921875 106.917968.054688.058594c3.679687 3.601563 5.847656 8.472656 6.066406 13.617188.261719 4.679687-1.484375 9.25-4.796875 12.5625-3.316406 3.3125-7.882812 5.058594-12.5625 4.796875-5.144531-.214844-10.015625-2.386719-13.621094-6.066407l-106.972656-106.972656c-3.125-3.125-8.191406-3.125-11.316406 0s-3.125 8.191406 0 11.3125l63.0625 63.0625c3.679687 3.605469 5.847656 8.472656 6.066406 13.621094.230469 4.664062-1.5 9.210938-4.777344 12.535156l-.402344.402344c-6.839843 6.835938-18.554687 6.277344-26.117187-1.25-2.207031-2.195312-4.515625-4.496094-6.929687-6.898438l-.042969-.042968c-9.425781-9.394532-20.355469-20.304688-32.28125-32.222656-.664063-1.109376-1.59375-2.035157-2.699219-2.703126-32.324219-32.3125-71.5-71.550781-107.773438-107.898437-26.113281-26.164063-27.671874-67.132813-3.480468-91.328125l58.753906-58.75c15.847656-15.847656 39.796875-21.246094 62.5-14.085938l67.132812 21.167969-37.5 11.824219c-3.59375 1.132812-5.910156 4.621094-5.5625 8.371094l.914063 9.820312c.460937 12.320313 5.996094 23.90625 15.296875 32.007813 9.53125 8.234375 22.054688 12.132812 34.578125 10.765625l5.328125-.523438 7.890625 7.902344 109.832031 109.988281c7.558594 7.566407 8.132813 19.300781 1.277344 26.148438l-.039062.042969c-6.695313 6.648437-17.992188 6.25-25.550782-.78125-12.464844-12.464844-26.058594-26.046876-38.964844-38.949219-28.945312-28.929688-53.941406-53.914063-56.355468-56.347657-3.117188-3.109374-8.160156-3.113281-11.285156-.011718-3.125 3.101562-3.15625 8.144531-.066407 11.285156 2.433594 2.457031 27.441407 27.449219 56.398438 56.390625l38.0625 38.050781c.105469.117188.214843.234375.332031.347656.246094.246094.5.488282.746094.726563 10.199218 10.203125 19.648437 19.648437 27.363281 27.359375 7.558594 7.566406 8.132813 19.300781 1.273437 26.160156zm114.128907-137.582031c-34.921875 34.992187-71.253907 71.382813-102.125 102.253906-.628907-.730469-1.277344-1.449219-1.96875-2.140625-2.128907-2.132812-4.394531-4.394531-6.769531-6.769531 6.109374-1.277344 11.714843-4.308594 16.128906-8.71875l.0625-.058594c13.027344-13.089843 12.4375-34.925781-1.328125-48.710937l-104.199219-104.34375 7.199219-7.214844c2.386719-2.386719 3.015625-6.019531 1.570312-9.074219-1.441406-3.050781-4.648437-4.867187-8.011719-4.539062l-32.5 3.1875c-8.140624.917969-16.300781-1.589844-22.519531-6.921875-6.019531-5.273438-9.574219-12.816406-9.816406-20.816406 0-.132813-.011719-.269532-.023437-.40625l-.335938-3.582032 55.390625-17.46875.03125-.007812 91.441406-28.835938c22.699219-7.160156 46.648438-1.761718 62.5 14.089844l58.75 58.75c24.199219 24.195312 22.640625 65.164062-3.476562 91.328125zm0 0" fill="url(#a)"/></svg>