<svg height="432pt" viewBox="-16 0 432 432.18923" width="432pt" xmlns="http://www.w3.org/2000/svg" xmlns:xlink="http://www.w3.org/1999/xlink"><linearGradient id="a"><stop offset="0" stop-color="#00efd1"/><stop offset="1" stop-color="#00acea"/></linearGradient><linearGradient id="b" gradientUnits="userSpaceOnUse" x1="199.094615" x2="199.094615" xlink:href="#a" y1="-34.045" y2="464.041"/><linearGradient id="c" gradientUnits="userSpaceOnUse" x1="310.594615" x2="310.594615" xlink:href="#a" y1="-34.045" y2="464.041"/><linearGradient id="d" gradientUnits="userSpaceOnUse" x1="200.175615" x2="200.175615" xlink:href="#a" y1="-34.045" y2="464.041"/><linearGradient id="e" gradientUnits="userSpaceOnUse" x1="87.594615" x2="87.594615" xlink:href="#a" y1="-34.045" y2="464.041"/><path d="m199.09375 93.71875c10.652344-.023438 20.859375-4.285156 28.363281-11.847656 7.507813-7.558594 11.695313-17.796875 11.636719-28.449219v-12.921875c0-22.089844-17.90625-40-40-40-22.089844 0-40 17.910156-40 40v12.921875c-.054688 10.652344 4.132812 20.890625 11.636719 28.449219 7.503906 7.5625 17.710937 11.824218 28.363281 11.847656zm-24-53.21875c-.042969-6.421875 2.476562-12.59375 6.996094-17.15625 4.519531-4.5625 10.667968-7.136719 17.089844-7.15625h-.191407c6.421875.019531 12.574219 2.59375 17.097657 7.152344 4.523437 4.5625 7.046874 10.738281 7.007812 17.160156v12.921875c0 13.253906-10.746094 24-24 24s-24-10.746094-24-24zm0 0" fill="url(#b)"/><path d="m310.59375 93.71875c22.285156-.007812 40.382812-18.011719 40.5-40.296875v-12.921875c0-22.367188-18.132812-40.5-40.5-40.5s-40.5 18.132812-40.5 40.5v12.921875c.121094 22.285156 18.214844 40.289063 40.5 40.296875zm-24.5-53.21875c.050781-13.429688 10.945312-24.296875 24.375-24.3125h.164062c13.449219.007812 24.371094 10.863281 24.460938 24.3125v12.921875c0 13.527344-10.96875 24.5-24.5 24.5s-24.5-10.972656-24.5-24.5zm0 0" fill="url(#c)"/><path d="m362.714844 92.238281c-1.386719-.140625-2.976563-.050781-4.371094-.050781h-17.007812c-2.011719-.058594-3.972657.65625-5.472657 2l-24.089843 22.527344-23.136719-22.382813c-1.503907-1.417969-3.507813-2.1875-5.574219-2.144531h-53.308594c-2.011718-.058594-3.972656.65625-5.472656 2l-24.085938 22.527344-23.136718-22.382813c-1.507813-1.417969-3.511719-2.1875-5.578125-2.144531h-53.300781c-2.015626-.058594-3.976563.65625-5.476563 2l-24.085937 22.523438-23.140626-22.378907c-1.507812-1.417969-3.511718-2.1875-5.582031-2.144531h-18.046875c-22.921875-.082031-41.589844 18.394531-41.742187 41.3125 0 1.253906-.011719 2.4375-.011719 3.6875v98.902344c.148438 14.382812 11.792969 25.992187 26.179688 26.097656h.007812l.285156-.140625c3.851563-.070313 7.636719-1.015625 11.0625-2.773437l4.359375 146.617187c.398438 10.855469 7.195313 20.445313 17.3125 24.410156 10.113281 3.96875 21.621094 1.558594 29.292969-6.132812 7.6875 7.707031 19.214844 10.109375 29.339844 6.121093 10.125-3.988281 16.910156-13.613281 17.273437-24.488281l4.28125-143.949219c3.382813-.21875 6.691407-1.121093 9.71875-2.648437l4.359375 146.648437c.382813 10.863282 7.179688 20.464844 17.300782 24.4375 10.117187 3.976563 21.632812 1.566407 29.308593-6.128906 7.683594 7.707032 19.210938 10.113282 29.339844 6.125 10.125-3.988281 16.914063-13.609375 17.277344-24.488281l4.355469-146.425781c3.042968 1.464844 6.347656 2.316406 9.722656 2.5l4.28125 143.980468c.382812 10.863282 7.179687 20.464844 17.300781 24.441407 10.121094 3.972656 21.632813 1.566406 29.308594-6.132813 7.6875 7.703125 19.210937 10.109375 29.335937 6.121094s16.914063-13.605469 17.277344-24.480469l4.355469-146.429687c3.546875 1.679687 7.425781 2.546875 11.347656 2.542968 14.296875-.003906 25.914063-11.539062 26.015625-25.835937v-98.890625c1.921875-22.679688-14.726562-42.699219-37.378906-44.949219zm-326.621094 143.351563c0 5.625-4.355469 10.597656-9.675781 10.597656h-.144531c-5.546876-.101562-10.03125-4.550781-10.179688-10.097656v-99.285156c0-.269532.167969-.539063.140625-.808594-.054687-.855469-.070313-1.714844-.039063-2.574219 0-6.742187 2.714844-13.199219 7.535157-17.910156 4.816406-4.765625 11.34375-7.402344 18.117187-7.324219h14.800782l26.285156 25.410156c.058594.054688.121094.019532.179687.074219.101563.101563.210938.148437.316407.238281.109374.089844.210937.144532.316406.226563.109375.078125.226562.15625.34375.230469.113281.078124.222656.140624.335937.203124s.234375.132813.351563.199219c.121094.0625.246094.117188.367187.175781.125.058594.234375.109376.351563.15625.121094.050782.261718.101563.394531.144532.132813.039062.234375.082031.351563.117187.136718.039063.273437.070313.410156.101563.121094.027344.234375.054687.355468.078125.140626.027343.277344.046875.417969.0625.121094.015625.238281.039062.359375.046875.140625.011718.277344.015625.417969.023437.097656 0 .207031.015625.308594.015625h.0625c.101562 0 .191406-.011718.285156-.015625.15625-.003906.3125-.011719.46875-.027343.101563-.011719.191406-.027344.289063-.039063.152343-.023437.304687-.042969.457031-.074219.101562-.019531.203125-.046875.296875-.066406.144531-.035156.292968-.070312.4375-.117188.097656-.027343.199218-.066406.300781-.097656.136719-.050781.273437-.101562.410156-.152344.101563-.042968.199219-.089843.308594-.136718.128906-.058594.257813-.117188.382813-.183594.101562-.054688.207031-.117188.3125-.175781.121093-.070313.238281-.140625.355468-.214844.117188-.078125.199219-.140625.304688-.214844.105468-.070312.222656-.160156.328125-.25.109375-.085937.195312-.160156.289062-.242187.058594-.054688.121094-.101563.183594-.15625l25.164063-23.617188c-4.753907 6.914063-7.285157 15.113282-7.253907 23.5 0 1.253906.199219 2.519532.199219 3.769532v83h-59.628906l-.269532-9.433594c-.011718-.34375-.101562-.859375-.101562-1.195313v-39.917969c0-4.421874-3.582031-8-8-8s-8 3.578126-8 8zm72.066406 180.589844c-2.972656-.015626-5.816406-1.21875-7.898437-3.34375-2.078125-2.128907-3.21875-5-3.167969-7.972657v-145.921875c0-4.417968-3.582031-8-8-8s-8 3.582032-8 8v145.921875c-.125 6.292969-5.265625 11.328125-11.5625 11.316407-6.070312.117187-11.132812-4.613282-11.429688-10.675782l-5.160156-169.316406h59.152344v-.097656c-.027344 6.847656 2.6875 13.421875 7.539062 18.253906 1.21875 1.21875 2.554688 2.316406 3.988282 3.273438l-4.269532 147.648437c-.140624 6.078125-5.113281 10.925781-11.191406 10.914063zm111.292969 0c-6.253906-.003907-11.332031-5.0625-11.359375-11.316407v-145.921875c0-4.417968-3.582031-8-8-8s-8 3.582032-8 8v145.921875c.015625 6.238281-5.035156 11.304688-11.269531 11.316407-6.042969.105468-11.058594-4.640626-11.285157-10.675782l-5.015624-169.316406h71.3125l-5.054688 169.261719c-.226562 6.066406-5.261719 10.835937-11.328125 10.730469zm32.640625-180.101563v-21.609375l.101562-3.417969c.015626-.515625-.101562-1.019531-.101562-1.511719v-39.90625c0-4.421874-3.582031-8-8-8s-8 3.578126-8 8v44.597657l.21875 5.957031h-72.265625l-.0625-9.433594c-.007813-.34375.109375-.859375.109375-1.191406v-39.929688c0-4.421874-3.582031-8-8-8s-8 3.578126-8 8v65.957032c0 5.625-4.777344 10.597656-10.097656 10.597656h-.144532c-2.613281-.042969-5.097656-1.128906-6.910156-3.015625-1.84375-1.894531-2.867187-4.4375-2.847656-7.082031v-99.285156c0-.269532-.042969-.539063-.066406-.808594-.09375-.855469-.140625-1.714844-.144532-2.574219.007813-6.738281 2.710938-13.191406 7.5-17.929687 4.789063-4.738282 11.273438-7.367188 18.011719-7.304688h14.839844l26.285156 25.410156c.050781.046875.109375.007813.160157.058594.109374.097656.21875.15625.328124.246094.101563.082031.195313.136718.292969.210937.113281.085938.230469.160157.351563.238281.097656.070313.207031.128907.3125.195313.105468.0625.238281.136719.359375.199219.121093.0625.226562.113281.339843.167968.113282.054688.238282.113282.363282.164063.121094.050781.238281.09375.359375.136719.121093.042968.242187.085937.367187.125.121094.035156.246094.070312.375.097656.125.027344.246094.058594.371094.085938.125.023437.253906.046874.378906.066406.128906.019531.253906.039062.382813.050781.125.011719.25.023437.378906.03125.125.003906.261719.011719.390625.011719.132812.003906.246094 0 .371094-.003906.121094-.007813.265625-.015626.398437-.027344.132813-.011719.238281-.023438.359375-.039063.132813-.019531.269532-.039062.40625-.066406.113282-.019531.230469-.042969.347656-.070313.132813-.03125.265626-.066406.398438-.101562.113281-.03125.230469-.070312.34375-.109375.128906-.042969.257812-.089844.386719-.140625.128906-.050781.226562-.09375.339843-.144531.113282-.050781.246094-.113281.371094-.175781.121094-.066407.222656-.121094.332032-.1875.109374-.0625.234374-.136719.347656-.207032.113281-.074218.21875-.148437.324218-.226562.109376-.074219.21875-.160156.328126-.246094.105468-.082031.199218-.167969.296874-.253906.0625-.054688.125.0625.183594.007812l27.355469-25.503906h13.84375c.855469-.050781 1.714844-.0625 2.570313-.03125 6.738281.640625 12.9375 3.949219 17.222656 9.183594 4.289062 5.238281 6.304687 11.96875 5.601562 18.699218-.035156.253907-.058594.507813-.066406.765626v99.273437c0 5.523437-4.476562 10-10 10s-10-4.476563-10-10zm79.148438 180.101563c-2.980469-.011719-5.835938-1.210938-7.929688-3.335938s-3.253906-5-3.21875-7.980469v-145.921875c0-4.417968-3.582031-8-8-8s-8 3.582032-8 8v145.921875c-.085938 6.277344-5.203125 11.320313-11.480469 11.316407-6.097656.03125-11.128906-4.765626-11.386719-10.855469l-4.464843-147.835938c7.109375-4.804687 11.355469-12.832031 11.332031-21.410156v.109375h59.324219l-4.949219 169.261719c-.175781 6.046875-5.179688 10.828125-11.226562 10.730469zm52.710937-280.179688c-.027344.265625.140625.535156.140625.804688v99.273437c0 5.523437-4.476562 10-10 10s-10-4.476563-10-10v-21.609375l.101562-3.417969c.015626-.515625-.101562-1.019531-.101562-1.511719v-39.90625c0-4.421874-3.582031-8-8-8s-8 3.578126-8 8v44.597657l-.199219 5.957031h-59.800781v-83c1.070312-10.417969-2.011719-20.839844-8.578125-29h.300781l26.277344 25.410156c.054688.050782.109375.011719.164062.0625.101563.097656.210938.148438.316407.238282.109375.085937.203125.136718.300781.210937.101562.074219.226562.15625.339844.234375.113281.078125.210937.132812.320312.199219.105469.066406.226563.136719.34375.199219.117188.066406.230469.117187.347656.171874.113282.058594.230469.109376.347657.160157.121093.050781.246093.101562.367187.140625.121094.042968.234375.085937.355469.121094.117187.035156.25.074218.378906.105468.128907.035156.238281.0625.359375.085938.121094.027344.257813.046875.386719.070312.128906.019532.246094.035156.367187.050782.125.011718.253907.023437.382813.03125.128906.007812.253906.015624.378906.015624.042969 0 .082031.007813.125.007813.078125 0 .15625-.011719.238281-.011719.136719 0 .277344-.007812.417969-.019531.117188-.011719.230469-.027344.347657-.039063.140624-.019531.28125-.039062.425781-.0625.113281-.019531.222656-.046874.335937-.074218.140625-.03125.28125-.0625.421875-.101563.113281-.03125.222657-.070312.332031-.101562.136719-.046875.273438-.089844.402344-.144531.109375-.042969.222656-.09375.332032-.140626.128906-.058593.257812-.117187.382812-.183593.125-.0625.21875-.117188.328125-.179688s.242187-.140625.359375-.214843c.117188-.078126.214844-.144532.320312-.21875.105469-.078126.226563-.167969.335938-.257813.113281-.085937.203125-.164063.300781-.25.0625-.054687.128907.058594.191407 0l27.355468-25.515625h13.839844c7.757812-.535156 15.257812 2.914062 19.894531 9.15625 4.324219 5.203125 6.382813 11.921875 5.714844 18.65625zm0 0" fill="url(#d)"/><path d="m87.59375 93.71875c22.285156-.007812 40.382812-18.011719 40.5-40.296875v-12.921875c0-22.367188-18.132812-40.5-40.5-40.5s-40.5 18.132812-40.5 40.5v12.921875c.121094 22.285156 18.214844 40.289063 40.5 40.296875zm-24.5-53.21875c.011719-13.414062 10.878906-24.289062 24.292969-24.3125h.199219c13.460937.003906 24.398437 10.855469 24.507812 24.3125v12.921875c0 13.527344-10.96875 24.5-24.5 24.5s-24.5-10.972656-24.5-24.5zm0 0" fill="url(#e)"/></svg>