<svg height="481pt" viewBox="-13 0 481 481.761" width="481pt" xmlns="http://www.w3.org/2000/svg" xmlns:xlink="http://www.w3.org/1999/xlink"><linearGradient id="a"><stop offset="0" stop-color="#00efd1"/><stop offset="1" stop-color="#00acea"/></linearGradient><linearGradient id="b" gradientUnits="userSpaceOnUse" x1="227.3805" x2="227.3805" xlink:href="#a" y1="26.787" y2="464.805"/><linearGradient id="c" gradientUnits="userSpaceOnUse" x1="227.3525" x2="227.3525" xlink:href="#a" y1="26.787" y2="464.805"/><path d="m249.84375 384.367188 1.730469-17.925782c7.351562-2.035156 14.410156-5.007812 21-8.84375l13.726562 11.367188c2.78125 2.304687 6.859375 2.113281 9.410157-.4375l21.757812-21.71875c2.5625-2.554688 2.753906-6.636719.445312-9.421875l-11.402343-13.746094c3.804687-6.585937 6.777343-13.621094 8.847656-20.941406l17.699219-1.730469c3.585937-.347656 6.320312-3.363281 6.320312-6.964844v-30.78125c0-3.601562-2.738281-6.617187-6.324218-6.964844l-17.933594-1.734374c-2.039063-7.339844-5.011719-14.386719-8.84375-20.964844l11.371094-13.714844c2.296874-2.773438 2.117187-6.835938-.414063-9.394531l-21.492187-21.710938c-2.550782-2.578125-6.648438-2.78125-9.441407-.464843l-13.761719 11.414062c-6.59375-3.808594-13.636718-6.78125-20.964843-8.847656l-1.730469-17.800782c-.351562-3.574218-3.378906-6.289062-6.96875-6.253906h-30.824219c-3.589843-.035156-6.613281 2.675782-6.96875 6.246094l-1.730469 17.839844c-7.347656 2.019531-14.40625 4.976562-21 8.800781l-13.726562-11.386719c-2.777344-2.304687-6.851562-2.117187-9.410156.429688l-21.757813 21.710937c-2.558593 2.554688-2.75 6.636719-.445312 9.421875l11.402343 13.746094c-3.804687 6.582031-6.777343 13.613281-8.847656 20.929688l-17.90625 1.738281c-3.578125.347656-6.300781 3.367187-6.28125 6.960937v30.78125c-.019531 3.59375 2.699219 6.613282 6.277344 6.964844l17.910156 1.734375c2.03125 7.339844 5 14.382813 8.832032 20.964844l-11.378907 13.71875c-2.308593 2.785156-2.121093 6.867187.441407 9.421875l21.753906 21.714844c2.558594 2.550781 6.632812 2.738281 9.414062.433593l13.761719-11.410156c6.589844 3.808594 13.632813 6.78125 20.960937 8.847656l1.730469 17.976563c.34375 3.605468 3.347657 6.371094 6.96875 6.414062h30.824219c3.621094-.042968 6.628906-2.8125 6.96875-6.417968zm-11.726562-24.167969-1.597657 16.585937h-18.113281l-1.601562-16.585937c-.292969-3.050781-2.515626-5.5625-5.507813-6.21875-9.171875-2.039063-17.898437-5.722657-25.757813-10.875-2.5625-1.652344-5.898437-1.453125-8.25.488281l-12.699218 10.523438-12.730469-12.707032 10.519531-12.6875c1.976563-2.382812 2.152344-5.773437.441406-8.347656-5.183593-7.796875-8.863281-16.496094-10.839843-25.652344-.625-2.964844-3.101563-5.179687-6.117188-5.476562l-16.484375-1.597656v-18.070313l16.488282-1.597656c3.007812-.296875 5.488281-2.496094 6.132812-5.449219 2.046875-9.164062 5.730469-17.882812 10.871094-25.734375 1.671875-2.570313 1.476562-5.929687-.480469-8.289063l-10.523437-12.6875 12.726562-12.699218 12.703125 10.527344c2.375 1.96875 5.757813 2.152343 8.328125.449218 7.8125-5.175781 16.527344-8.839844 25.691406-10.800781 2.96875-.605469 5.199219-3.074219 5.5-6.089844l1.597656-16.414062h18.105469l1.601563 16.414062c.296875 3.03125 2.527344 5.515625 5.507812 6.132813 9.167969 2.019531 17.894532 5.6875 25.75 10.824218 2.570313 1.644532 5.90625 1.441407 8.253906-.511718l12.667969-10.507813 12.519531 12.648438-10.539062 12.714843c-1.972656 2.378907-2.152344 5.769532-.441406 8.34375 5.1875 7.796876 8.863281 16.5 10.839844 25.652344.648437 2.96875 3.140624 5.183594 6.164062 5.476563l16.539062 1.597656v18.078125l-16.28125 1.589844c-3.011718.296875-5.492187 2.496094-6.148437 5.449218-2.050781 9.164063-5.738281 17.882813-10.882813 25.738282-1.675781 2.566406-1.480468 5.925781.476563 8.285156l10.519531 12.6875-12.730468 12.699219-12.703126-10.527344c-2.371093-1.96875-5.753906-2.148437-8.328124-.449219-7.808594 5.191406-16.523438 8.871094-25.691407 10.851563-2.988281.660156-5.207031 3.171875-5.496093 6.21875zm0 0" fill="url(#b)"/><path d="m294.097656 278.613281c.046875-36.875-29.8125-66.800781-66.6875-66.832031-36.871094-.035156-66.785156 29.839844-66.800781 66.714844-.019531 36.875 29.871094 66.773437 66.742187 66.773437 36.820313-.015625 66.679688-29.835937 66.746094-66.65625zm-66.746094 52.65625c-29.070312-.046875-52.601562-23.644531-52.566406-52.714843.03125-29.070313 23.613282-52.613282 52.683594-52.597657s52.628906 23.585938 52.628906 52.65625c-.058594 29.09375-23.652344 52.648438-52.746094 52.65625zm0 0" fill="url(#c)"/><path d="m427.097656 204.785156h-21.71875v-37.085937c0-44.6875-18.066406-86.730469-51.3125-118.390625-33.066406-31.492188-76.816406-49-123.566406-49.308594-96.660156 0-175.121094 75.230469-175.121094 167.699219v37.085937h-27.714844c-14.882812 0-27.285156 11.6875-27.285156 26.578125v108.570313c0 14.886718 12.402344 26.851562 27.285156 26.851562h69.476563c3.886719.089844 7.113281-2.96875 7.238281-6.851562v-148.570313c0-3.867187-3.371094-6.578125-7.238281-6.578125h-27.761719v-37.085937c0-84.75 72.300782-153.699219 161.195313-153.699219 43.125.28125 83.390625 16.421875 113.867187 45.445312 30.4375 28.992188 46.9375 67.441407 46.9375 108.253907v37.085937h-27.410156c-1.765625-.078125-3.488281.585938-4.742188 1.835938-1.253906 1.253906-1.921874 2.972656-1.847656 4.742187v148.570313c-.085937 1.796875.570313 3.550781 1.820313 4.847656 1.246093 1.296875 2.972656 2.023438 4.769531 2.003906h20.410156v41.980469c0 13.785156-10.714844 25.019531-24.5 25.019531h-59.46875c-4.007812-20.929687-23.59375-35.136718-44.738281-32.453125-21.140625 2.679688-36.554687 21.332031-35.210937 42.601563 1.34375 21.269531 18.988281 37.828125 40.300781 37.828125 19.785156-.113281 36.617187-14.457031 39.867187-33.976563h59.25c21.5 0 38.5-17.515625 38.5-39.019531v-41.980469h28.71875c14.886719 0 27.28125-11.964844 27.28125-26.851562v-108.570313c0-14.890625-12.394531-26.578125-27.28125-26.578125zm-336.71875 148h-62.714844c-7.203124.085938-13.128906-5.648437-13.285156-12.851562v-108.570313c0-7.171875 6.117188-12.578125 13.285156-12.578125h62.714844zm170.382813 114.960938c-14.570313.003906-26.382813-11.808594-26.382813-26.378906 0-14.570313 11.8125-26.378907 26.382813-26.378907 14.566406 0 26.378906 11.8125 26.378906 26.378907-.019531 14.5625-11.820313 26.363281-26.378906 26.378906zm179.617187-127.8125c-.152344 7.203125-6.078125 12.9375-13.28125 12.851562h-55.71875v-134h55.71875c7.167969 0 13.28125 5.40625 13.28125 12.578125zm0 0" fill="url(#b)"/></svg>